<svg width="90" height="82" viewBox="0 0 90 82" fill="none" xmlns="http://www.w3.org/2000/svg">
<path d="M50.2656 3.91052C50.2656 3.91052 50.2656 3.57628e-06 54.1761 3.57628e-06C58.0867 3.57628e-06 58.0867 3.91052 58.0867 3.91052V7.82105C58.0867 7.82105 58.0867 11.7316 54.1761 11.7316C50.2656 11.7316 50.2656 7.82105 50.2656 7.82105V3.91052Z" fill="#FFAC33"/>
<path d="M85.4603 31.2843C85.4603 31.2843 89.3708 31.2843 89.3708 35.1948C89.3708 39.1053 85.4603 39.1053 85.4603 39.1053H81.5497C81.5497 39.1053 77.6392 39.1053 77.6392 35.1948C77.6392 31.2843 81.5497 31.2843 81.5497 31.2843H85.4603Z" fill="#FFAC33"/>
<path d="M26.8025 31.2843C26.8025 31.2843 30.713 31.2843 30.713 35.1948C30.713 39.1053 26.8025 39.1053 26.8025 39.1053H22.892C22.892 39.1053 18.9814 39.1053 18.9814 35.1948C18.9814 31.2843 22.892 31.2843 22.892 31.2843H26.8025Z" fill="#FFAC33"/>
<path d="M36.8154 14.2618C36.8154 14.2618 39.5801 17.0265 36.8154 19.7912C34.0507 22.556 31.2859 19.7912 31.2859 19.7912L28.5192 17.0265C28.5192 17.0265 25.7545 14.2618 28.5192 11.4951C31.2859 8.73034 34.0507 11.4951 34.0507 11.4951L36.8154 14.2618Z" fill="#FFAC33"/>
<path d="M77.8758 55.3202C77.8758 55.3202 80.6406 58.085 77.8758 60.8497C75.1111 63.6145 72.3464 60.8497 72.3464 60.8497L69.5816 58.085C69.5816 58.085 66.8169 55.3202 69.5816 52.5555C72.3464 49.7908 75.1111 52.5555 75.1111 52.5555L77.8758 55.3202Z" fill="#FFAC33"/>
<path d="M77.0683 19.7893C77.0683 19.7893 74.3036 22.554 71.5388 19.7893C68.7741 17.0246 71.5388 14.2598 71.5388 14.2598L74.3036 11.4951C74.3036 11.4951 77.0683 8.73034 79.833 11.4951C82.5978 14.2598 79.833 17.0246 79.833 17.0246L77.0683 19.7893Z" fill="#FFAC33"/>
<path d="M36.0079 60.8497C36.0079 60.8497 33.2431 63.6145 30.4784 60.8497C27.7137 58.085 30.4784 55.3202 30.4784 55.3202L33.2431 52.5555C33.2431 52.5555 36.0079 49.7908 38.7726 52.5555C41.5374 55.3202 38.7726 58.085 38.7726 58.085L36.0079 60.8497Z" fill="#FFAC33"/>
<path d="M50.2656 62.5684C50.2656 62.5684 50.2656 58.6578 54.1761 58.6578C58.0867 58.6578 58.0867 62.5684 58.0867 62.5684V66.4789C58.0867 66.4789 58.0867 70.3894 54.1761 70.3894C50.2656 70.3894 50.2656 66.4789 50.2656 66.4789V62.5684Z" fill="#FFAC33"/>
<path d="M73.7287 35.1947C73.7287 24.3958 64.973 15.6421 54.1761 15.6421C43.3772 15.6421 34.6235 24.3958 34.6235 35.1947C34.6235 45.9917 43.3772 54.7473 54.1761 54.7473C64.973 54.7473 73.7287 45.9917 73.7287 35.1947Z" fill="#FFAC33"/>
<path d="M63.552 44.6646C63.5629 44.5212 63.5684 44.3785 63.5684 44.2363C63.5679 42.7231 62.9573 41.2671 61.861 40.1646C60.7648 39.0621 59.2652 38.396 57.6676 38.3019C56.8913 36.369 55.5451 34.687 53.7886 33.4551C52.0321 32.2233 49.9389 31.4932 47.7569 31.3514C45.5749 31.2096 43.3957 31.662 41.4774 32.6551C39.5591 33.6481 37.9821 35.1402 36.9333 36.9545C36.5965 36.9178 36.2577 36.8991 35.9187 36.8984C34.5622 36.8942 33.2215 37.1748 31.9937 37.72C30.7658 38.2651 29.6812 39.0611 28.8183 40.0506C28.6782 40.2115 28.5912 40.4078 28.568 40.615C28.5449 40.8222 28.5867 41.0313 28.6882 41.2163C28.7898 41.4013 28.9465 41.554 29.1391 41.6554C29.3317 41.7569 29.5515 41.8026 29.7713 41.7869C29.89 41.7786 30.0169 41.7792 30.1366 41.7797C32.9471 41.7852 35.6967 42.5543 38.0579 43.9953C40.4191 45.4362 42.2924 47.4884 43.4548 49.9073C43.5604 50.1274 43.7421 50.3069 43.97 50.4163C44.1979 50.5256 44.4585 50.5584 44.7087 50.5091C46.6778 50.1228 48.7203 50.2416 50.6243 50.8533C52.5284 51.4649 54.2246 52.5471 55.5371 53.9874C55.6426 54.1042 55.7737 54.1979 55.9213 54.2622C56.0689 54.3264 56.2295 54.3597 56.392 54.3596H65.335C65.5314 54.3597 65.7244 54.3111 65.8948 54.2187C66.0651 54.1263 66.207 53.9934 66.3061 53.8331C66.9292 52.8247 67.2578 51.678 67.2585 50.5102C67.2529 49.3109 66.9058 48.1353 66.2536 47.1067C65.6014 46.0781 64.6682 45.2345 63.552 44.6646V44.6646Z" fill="#7CC9F2"/>
<path d="M60.5069 61.2392C60.2928 57.8175 58.7853 54.606 56.2911 52.2582C53.7969 49.9104 50.5035 48.6027 47.0809 48.6012C46.4512 48.6012 45.8223 48.6448 45.1986 48.7317C43.7795 45.99 41.637 43.6907 39.0043 42.0839C36.3715 40.477 33.3493 39.6241 30.2663 39.618C30.0933 39.618 29.9067 39.6192 29.7874 39.6293C26.3915 39.7152 23.102 40.8345 20.3565 42.8384C17.611 44.8424 15.5394 47.6359 14.4172 50.8478C12.0669 50.8915 9.82744 51.8567 8.17977 53.5362C6.5321 55.2156 5.60763 57.4754 5.60489 59.8301C5.60507 60.1739 5.62517 60.5173 5.66509 60.8587C3.97227 61.6953 2.54557 62.9878 1.54496 64.5911C0.54434 66.1945 0.00936842 68.0453 2.44119e-05 69.9362C-0.00391018 71.7154 0.467842 73.4631 1.36627 74.9979C1.46522 75.1663 1.60636 75.3059 1.7757 75.4028C1.94504 75.4997 2.13672 75.5507 2.33176 75.5506H14.9762C15.2433 75.5506 15.5015 75.4551 15.7045 75.2814C15.9075 75.1076 16.0419 74.8669 16.0835 74.6027C16.407 72.5567 17.4487 70.6936 19.0211 69.3483C20.5936 68.003 22.5936 67.2639 24.6615 67.2639C26.7294 67.2639 28.7295 68.003 30.3019 69.3483C31.8744 70.6936 32.9161 72.5567 33.2396 74.6027C33.2812 74.8669 33.4156 75.1076 33.6186 75.2814C33.8216 75.4551 34.0798 75.5506 34.3469 75.5506H64.7252C64.9056 75.5507 65.0832 75.5072 65.2431 75.4237C65.403 75.3403 65.5405 75.2194 65.6438 75.0714C66.6973 73.5671 67.2612 71.7737 67.2584 69.9362C67.251 67.9429 66.5844 66.0082 65.3628 64.4347C64.1413 62.8612 62.4337 61.7375 60.5069 61.2392Z" fill="#9CD5F2"/>
<path d="M39.7149 70.9823C39.6892 70.5303 39.6389 70.0799 39.5644 69.6327C39.0629 66.6589 37.4469 63.9508 35.0074 61.9954C32.5678 60.0401 29.4648 58.966 26.2566 58.9664C23.0484 58.9668 19.9457 60.0417 17.5066 61.9976C15.0676 63.9535 13.4525 66.6621 12.9517 69.6359C12.8777 70.0821 12.8277 70.5315 12.8019 70.9823C10.6718 71.7044 8.83052 73.0251 7.52893 74.7645C6.22734 76.504 5.52868 78.5777 5.52808 80.7032C5.52808 81.0471 5.67368 81.377 5.93286 81.6203C6.19204 81.8635 6.54356 82.0001 6.9101 82.0001H45.6067C45.9733 82.0001 46.3248 81.8635 46.584 81.6203C46.8432 81.377 46.9888 81.0471 46.9888 80.7032C46.9882 78.5777 46.2895 76.504 44.9879 74.7645C43.6863 73.0251 41.8451 71.7044 39.7149 70.9823V70.9823Z" fill="#B2EBF2"/>
</svg>
